<?xml version="1.0" standalone="no"?>
<!DOCTYPE svg PUBLIC "-//W3C//DTD SVG 20010904//EN"
 "http://www.w3.org/TR/2001/REC-SVG-20010904/DTD/svg10.dtd">
<svg version="1.0" xmlns="http://www.w3.org/2000/svg"
 width="141.000000pt" height="95.000000pt" viewBox="0 0 141.000000 95.000000"
 preserveAspectRatio="xMidYMid meet">

<g transform="translate(0.000000,95.000000) scale(0.100000,-0.100000)"
fill="#000000" stroke="none">
<path d="M643 655 c-37 -16 -63 -60 -63 -106 0 -22 10 -41 34 -65 28 -28 42
-34 76 -34 34 0 48 6 76 34 38 38 44 77 19 126 -16 31 -61 60 -92 60 -10 -1
-32 -7 -50 -15z m108 -34 c60 -61 24 -151 -61 -151 -54 0 -90 34 -90 85 0 48
45 95 90 95 22 0 41 -9 61 -29z"/>
<path d="M545 438 c-38 -21 -45 -39 -45 -129 0 -119 0 -119 190 -119 190 0
190 0 190 118 0 101 -12 128 -65 138 -26 4 -41 1 -64 -15 -37 -26 -77 -27
-116 -1 -34 22 -60 25 -90 8z m90 -28 c38 -25 61 -25 110 0 81 41 117 16 123
-86 3 -48 0 -70 -12 -89 -16 -25 -18 -25 -166 -25 -176 0 -180 2 -180 106 0
103 52 142 125 94z"/>
</g>
</svg>
