<?xml version="1.0" standalone="no"?>
<!DOCTYPE svg PUBLIC "-//W3C//DTD SVG 20010904//EN"
 "http://www.w3.org/TR/2001/REC-SVG-20010904/DTD/svg10.dtd">
<svg version="1.0" xmlns="http://www.w3.org/2000/svg"
 width="425.000000pt" height="425.000000pt" viewBox="0 0 425.000000 425.000000"
 preserveAspectRatio="xMidYMid meet">

<g transform="translate(0.000000,425.000000) scale(0.100000,-0.100000)"
fill="#000000" stroke="none">
<path d="M753 4235 c-369 -67 -638 -316 -734 -680 -18 -67 -19 -138 -19 -1434
0 -1202 2 -1370 16 -1425 82 -323 298 -557 614 -663 l85 -28 1405 0 1405 0 85
28 c303 102 511 318 607 632 l28 90 0 1355 c0 1302 -1 1358 -19 1430 -97 377
-367 629 -745 695 -117 21 -2615 21 -2728 0z m2024 -1470 c39 -12 62 -27 96
-65 l44 -49 39 40 c60 62 124 89 209 89 137 0 234 -52 279 -150 20 -42 21 -65
24 -372 l3 -328 -115 0 -116 0 0 280 c0 235 -3 286 -16 320 -20 51 -56 70
-128 70 -47 0 -60 -4 -90 -30 -57 -50 -61 -75 -61 -372 l0 -268 -112 0 -113 0
0 268 c0 147 -5 285 -10 307 -5 24 -21 51 -40 68 -25 22 -40 27 -84 27 -67 0
-112 -28 -143 -90 -22 -43 -23 -54 -23 -312 l0 -268 -115 0 -115 0 0 415 0
415 110 0 110 0 0 -55 0 -55 41 41 c83 83 203 110 326 74z m-1763 -22 c3 -10
35 -128 71 -263 80 -297 76 -283 83 -276 3 3 35 129 72 278 l66 273 112 3 111
3 10 -38 c6 -21 33 -130 61 -243 68 -274 71 -283 76 -277 3 2 36 121 75 263
38 143 72 267 75 277 5 15 20 17 120 17 63 0 114 -3 114 -7 0 -5 -58 -190
-128 -413 l-128 -405 -120 -3 -119 -2 -69 262 c-38 145 -72 270 -77 278 -8 16
-6 24 -79 -270 -28 -113 -55 -220 -61 -237 l-11 -33 -118 0 c-114 0 -119 1
-125 23 -14 44 -247 782 -252 794 -4 10 22 13 115 13 106 0 121 -2 126 -17z
m428 -1157 c73 -41 241 -98 348 -120 338 -69 744 -23 1013 114 l77 40 50 -68
c27 -37 48 -71 47 -77 -6 -16 -136 -101 -237 -154 -206 -107 -394 -155 -610
-155 -154 0 -245 14 -389 60 -155 50 -456 216 -456 252 0 11 85 141 92 142 1
0 31 -16 65 -34z"/>
</g>
</svg>
