<svg width="16" height="17" viewBox="0 0 16 17" fill="none" xmlns="http://www.w3.org/2000/svg">
<path d="M8.78991 13.0596C8.76759 13.0373 8.74989 13.0108 8.73781 12.9817C8.72574 12.9525 8.71952 12.9213 8.71952 12.8898C8.71952 12.8582 8.72574 12.827 8.73781 12.7979C8.74989 12.7687 8.76759 12.7423 8.78991 12.72L12.7001 8.80978L2.71971 8.80978C2.65606 8.80978 2.59501 8.78449 2.55 8.73948C2.505 8.69447 2.47971 8.63343 2.47971 8.56978C2.47971 8.50612 2.505 8.44508 2.55 8.40007C2.59501 8.35506 2.65606 8.32978 2.71971 8.32978L12.7001 8.32978L8.78991 4.41958C8.76761 4.39728 8.74992 4.37081 8.73785 4.34167C8.72579 4.31254 8.71958 4.28131 8.71958 4.24978C8.71958 4.21824 8.72579 4.18702 8.73785 4.15788C8.74992 4.12875 8.76761 4.10228 8.78991 4.07998C8.81221 4.05768 8.83868 4.03999 8.86781 4.02792C8.89695 4.01585 8.92817 4.00964 8.95971 4.00964C8.99124 4.00964 9.02247 4.01585 9.0516 4.02792C9.08074 4.03999 9.10721 4.05768 9.12951 4.07998L13.4495 8.39998C13.4718 8.42227 13.4895 8.44874 13.5016 8.47787C13.5137 8.50701 13.5199 8.53824 13.5199 8.56978C13.5199 8.60132 13.5137 8.63255 13.5016 8.66168C13.4895 8.69082 13.4718 8.71729 13.4495 8.73958L9.12951 13.0596C9.10722 13.0819 9.08075 13.0996 9.05161 13.1117C9.02248 13.1237 8.99125 13.13 8.95971 13.13C8.92817 13.13 8.89694 13.1237 8.8678 13.1117C8.83867 13.0996 8.8122 13.0819 8.78991 13.0596Z" fill="white"/>
</svg>
