<?xml version="1.0" standalone="no"?>
<!DOCTYPE svg PUBLIC "-//W3C//DTD SVG 20010904//EN"
 "http://www.w3.org/TR/2001/REC-SVG-20010904/DTD/svg10.dtd">
<svg version="1.0" xmlns="http://www.w3.org/2000/svg"
 width="382.000000pt" height="190.000000pt" viewBox="0 0 382.000000 190.000000"
 preserveAspectRatio="xMidYMid meet">

<g transform="translate(0.000000,190.000000) scale(0.100000,-0.100000)"
fill="#000000" stroke="none">
<path d="M1484 1715 c-49 -12 -120 -37 -159 -55 -198 -91 -246 -116 -320 -159
-326 -194 -413 -243 -508 -291 -60 -30 -113 -63 -119 -73 -12 -23 6 -51 130
-203 104 -127 209 -220 372 -329 583 -389 1390 -435 2045 -115 173 84 360 207
494 324 48 42 231 281 231 301 0 29 -31 55 -120 102 -41 22 -131 70 -200 108
-69 38 -146 80 -172 94 -48 26 -114 64 -248 141 -225 129 -325 168 -453 177
-100 7 -182 -12 -311 -70 -82 -36 -94 -39 -155 -35 -47 4 -84 14 -128 37 -123
62 -251 77 -379 46z m1086 -87 c49 -16 318 -147 425 -207 50 -28 146 -81 215
-117 161 -85 263 -147 267 -161 6 -18 -40 -38 -178 -78 -113 -33 -135 -37
-244 -37 -87 0 -158 8 -260 27 -77 15 -172 32 -211 39 -96 18 -98 19 -74 65
10 21 17 41 13 44 -6 7 -73 -18 -118 -44 -54 -31 -290 -85 -326 -76 -11 3 -35
1 -53 -4 -18 -5 -43 -6 -53 -2 -11 5 -48 45 -82 91 -35 45 -66 82 -71 82 -29
0 -2 -88 39 -124 11 -11 21 -26 21 -34 0 -29 -106 -5 -238 53 -68 30 -127 55
-133 55 -14 0 -11 -28 7 -55 21 -32 11 -45 -33 -45 -19 0 -95 -13 -167 -29
-303 -68 -458 -61 -785 35 -18 6 32 61 63 70 12 4 66 32 121 64 55 31 118 66
140 77 22 11 123 64 225 118 324 171 367 192 429 205 99 21 187 8 326 -46 114
-44 124 -46 200 -42 67 4 97 12 180 48 137 59 236 67 355 28z m60 -610 c130
-25 186 -31 352 -35 182 -5 206 -3 330 21 157 30 168 31 168 11 0 -15 -96
-111 -212 -210 -215 -185 -524 -333 -831 -397 -148 -31 -160 -32 -412 -32
-308 -1 -410 10 -587 65 -69 21 -131 39 -136 39 -24 0 -348 163 -418 211 -139
93 -368 308 -357 335 7 18 12 18 158 -21 181 -47 473 -45 670 5 145 37 216 43
317 25 95 -16 227 -52 241 -65 5 -4 2 -28 -7 -53 -12 -35 -13 -53 -5 -76 15
-42 36 -39 50 8 10 34 17 40 42 43 16 2 34 11 38 21 5 9 13 25 17 34 5 10 35
26 68 36 97 30 318 76 339 70 11 -2 90 -18 175 -35z"/>
<path d="M2096 1243 c-26 -26 -48 -133 -28 -133 13 0 37 31 51 67 18 44 1 90
-23 66z"/>
</g>
</svg>
