<?xml version="1.0" standalone="no"?>
<!DOCTYPE svg PUBLIC "-//W3C//DTD SVG 20010904//EN"
 "http://www.w3.org/TR/2001/REC-SVG-20010904/DTD/svg10.dtd">
<svg version="1.0" xmlns="http://www.w3.org/2000/svg"
 width="84.000000pt" height="74.000000pt" viewBox="0 0 84.000000 74.000000"
 preserveAspectRatio="xMidYMid meet">

<g transform="translate(0.000000,74.000000) scale(0.100000,-0.100000)"
fill="#000000" stroke="none">
<path d="M560 613 c-78 -8 -188 -37 -240 -63 -135 -69 -192 -194 -140 -309
l20 -44 -20 -54 c-21 -57 -25 -83 -12 -83 4 0 13 19 19 43 7 23 18 50 25 60
13 17 15 17 58 -2 60 -27 141 -27 197 0 56 27 86 79 125 212 31 107 40 126 94
194 19 23 34 44 34 47 0 6 -98 6 -160 -1z m79 -75 c-22 -34 -49 -94 -60 -133
-42 -149 -59 -183 -107 -220 -49 -36 -189 -30 -222 10 -9 10 -7 21 5 46 25 47
164 183 213 208 23 12 42 26 42 31 0 16 -13 12 -64 -20 -65 -41 -145 -119
-187 -180 -19 -27 -38 -50 -42 -50 -13 0 -37 67 -37 103 0 49 44 128 91 164
66 51 239 100 361 102 l48 1 -41 -62z"/>
</g>
</svg>
