<?xml version="1.0" standalone="no"?>
<!DOCTYPE svg PUBLIC "-//W3C//DTD SVG 20010904//EN"
 "http://www.w3.org/TR/2001/REC-SVG-20010904/DTD/svg10.dtd">
<svg version="1.0" xmlns="http://www.w3.org/2000/svg"
 width="101.000000pt" height="81.000000pt" viewBox="0 0 101.000000 81.000000"
 preserveAspectRatio="xMidYMid meet">

<g transform="translate(0.000000,81.000000) scale(0.100000,-0.100000)"
fill="#000000" stroke="none">
<path d="M347 637 c-3 -8 -1 -20 4 -28 5 -8 9 -39 9 -71 0 -47 -10 -80 -66
-210 -36 -84 -66 -166 -66 -181 -2 -55 28 -61 282 -57 140 2 143 15 50 236
-57 136 -70 176 -70 220 0 29 5 56 10 59 6 3 10 15 10 26 0 17 -7 19 -79 19
-57 0 -80 -4 -84 -13z m137 -24 c-18 -40 -15 -109 5 -161 12 -29 21 -57 21
-62 0 -6 -37 -10 -85 -10 -47 0 -85 2 -85 4 0 2 9 25 20 51 21 50 28 159 10
170 -25 16 -4 25 56 25 59 0 65 -2 58 -17z m85 -353 c22 -55 41 -106 41 -114
0 -32 -27 -37 -191 -34 -147 3 -164 5 -167 20 -2 13 3 18 18 18 12 0 19 4 15
10 -3 5 -13 6 -21 3 -12 -4 -15 -1 -12 13 2 12 13 20 31 22 31 4 37 22 7 22
-36 0 -17 32 25 43 18 4 18 5 -3 6 -20 1 -21 4 -12 21 6 11 20 20 30 20 11 0
20 5 20 10 0 6 -7 10 -15 10 -16 0 -20 12 -8 23 3 4 50 7 103 7 l97 0 42 -100z"/>
</g>
</svg>
