<?xml version="1.0" standalone="no"?>
<!DOCTYPE svg PUBLIC "-//W3C//DTD SVG 20010904//EN"
 "http://www.w3.org/TR/2001/REC-SVG-20010904/DTD/svg10.dtd">
<svg version="1.0" xmlns="http://www.w3.org/2000/svg"
 width="77.000000pt" height="82.000000pt" viewBox="0 0 77.000000 82.000000"
 preserveAspectRatio="xMidYMid meet">

<g transform="translate(0.000000,82.000000) scale(0.100000,-0.100000)"
fill="#000000" stroke="none">
<path d="M287 535 c-132 -163 -154 -249 -90 -353 41 -67 99 -97 183 -97 107 1
170 46 205 146 20 56 19 84 -8 149 -21 51 -179 260 -197 260 -5 0 -46 -47 -93
-105z m154 3 c79 -95 127 -175 134 -222 16 -102 -87 -216 -195 -216 -111 0
-214 120 -194 225 3 20 23 61 43 93 46 70 138 182 151 182 5 0 33 -28 61 -62z"/>
<path d="M370 325 c0 -22 -4 -25 -35 -25 -19 0 -35 -4 -35 -10 0 -5 16 -10 35
-10 33 0 35 -2 35 -35 0 -19 5 -35 10 -35 6 0 10 16 10 35 0 33 2 35 35 35 19
0 35 5 35 10 0 6 -16 10 -35 10 -31 0 -35 3 -35 25 0 14 -4 25 -10 25 -5 0
-10 -11 -10 -25z"/>
</g>
</svg>
